<svg width="21" height="20" viewBox="0 0 21 20" fill="none" xmlns="http://www.w3.org/2000/svg">
<path d="M1.67006 1.02562H18.4087C18.5941 1.09065 18.7622 1.19727 18.9001 1.3373C19.0379 1.47733 19.1419 1.64705 19.2041 1.83348C19.2662 2.0199 19.2848 2.21808 19.2586 2.41282C19.2323 2.60756 19.1618 2.79371 19.0525 2.957L12.6145 10.0387V19.0518L7.46419 15.1891V10.0387L1.02626 2.957C0.916936 2.79371 0.846434 2.60756 0.820157 2.41282C0.793881 2.21808 0.812527 2.0199 0.874668 1.83348C0.93681 1.64705 1.0408 1.47733 1.17866 1.3373C1.31653 1.19727 1.48462 1.09065 1.67006 1.02562Z" stroke="#303030" stroke-width="1.5" stroke-linecap="round" stroke-linejoin="round"/>
</svg>
