<svg width="17" height="18" viewBox="0 0 17 18" fill="none" xmlns="http://www.w3.org/2000/svg">
<path fill-rule="evenodd" clip-rule="evenodd" d="M5.00038 3.99998L5.00038 17C5.00038 17.552 4.55338 18 4.00038 18C3.44738 18 3.00038 17.552 3.00038 17L3.00038 3.91798L1.79038 5.47598C1.45138 5.91198 0.822384 5.99098 0.387384 5.65198C-0.0496164 5.31298 -0.128616 4.68398 0.210384 4.24898L3.21038 0.386978C3.40138 0.139978 3.69638 -0.00202195 4.00938 -2.11561e-05C4.32038 0.00197964 4.61338 0.149978 4.80038 0.399978L7.80038 4.39998C7.93538 4.57998 8.00038 4.79098 8.00038 4.99898C8.00038 5.30298 7.86238 5.60398 7.60038 5.79998C7.15838 6.13098 6.53138 6.04198 6.20038 5.59998L5.00038 3.99998ZM12.0004 14L12.0004 0.999978C12.0004 0.447978 12.4474 -2.15249e-05 13.0004 -2.15491e-05C13.5534 -2.15733e-05 14.0004 0.447978 14.0004 0.999978L14.0004 14.082L15.2104 12.524C15.5494 12.088 16.1784 12.009 16.6134 12.348C16.8674 12.545 17.0004 12.84 17.0004 13.138C17.0004 13.353 16.9324 13.569 16.7904 13.751L13.7904 17.613C13.5994 17.86 13.3044 18.002 12.9914 18C12.6804 17.998 12.3874 17.85 12.2004 17.6L9.20038 13.6C8.86938 13.157 8.95838 12.531 9.40038 12.2C9.84238 11.869 10.4694 11.958 10.8004 12.4L12.0004 14Z" fill="#303030"/>
</svg>
