<svg width="22" height="17" viewBox="0 0 22 17" fill="none" xmlns="http://www.w3.org/2000/svg">
<path fill-rule="evenodd" clip-rule="evenodd" d="M6.21968 2C5.35568 2 4.54568 2.334 3.93968 2.941C2.68168 4.201 2.68168 6.252 3.94068 7.514L10.9997 14.585L18.0597 7.514C19.3187 6.252 19.3187 4.201 18.0597 2.941C16.8477 1.726 14.7117 1.728 13.4997 2.941L11.7077 4.736C11.3317 5.113 10.6677 5.113 10.2917 4.736L8.49968 2.94C7.89368 2.334 7.08468 2 6.21968 2ZM10.9997 17C10.7347 17 10.4797 16.895 10.2927 16.706L2.52468 8.926C0.488681 6.886 0.488681 3.567 2.52468 1.527C3.50868 0.543 4.82068 0 6.21968 0C7.61868 0 8.93168 0.543 9.91468 1.527L10.9997 2.614L12.0847 1.528C13.0687 0.543 14.3807 0 15.7807 0C17.1787 0 18.4917 0.543 19.4747 1.527C21.5117 3.567 21.5117 6.886 19.4757 8.926L11.7077 16.707C11.5197 16.895 11.2657 17 10.9997 17Z" fill="#4F4F4F"/>
</svg>
