<svg width="232" height="208" viewBox="0 0 232 208" fill="none" xmlns="http://www.w3.org/2000/svg">
<g clip-path="url(#clip0_1095_10189)">
<path d="M229.964 79.5434C229.881 79.5435 229.8 79.518 229.732 79.4706L117.167 1.17566C116.825 0.938499 116.418 0.811758 116.001 0.812468C115.584 0.813178 115.178 0.941303 114.836 1.17963L3.08227 79.4698C2.99388 79.5317 2.88448 79.556 2.77814 79.5374C2.6718 79.5187 2.57722 79.4587 2.51522 79.3704C2.45322 79.2821 2.42887 79.1728 2.44754 79.0666C2.4662 78.9604 2.52634 78.866 2.61474 78.804L114.368 0.513889C114.847 0.180288 115.416 0.000961644 116 3.85678e-06C116.583 -0.000953931 117.153 0.176501 117.633 0.50853L230.197 78.8032C230.268 78.8527 230.321 78.9236 230.349 79.0055C230.377 79.0874 230.379 79.1761 230.353 79.2587C230.327 79.3413 230.275 79.4134 230.205 79.4646C230.135 79.5158 230.051 79.5434 229.964 79.5434L229.964 79.5434Z" fill="#3F3D56"/>
<path d="M9.46875 82.3186L116.112 3.38159L223.565 87.9353L121.607 148.302L66.2526 135.7L9.46875 82.3186Z" fill="#E6E6E6"/>
<path d="M70.9244 185.588H18.2399C17.9164 185.588 17.596 185.525 17.297 185.402C16.998 185.278 16.7263 185.097 16.4974 184.869C16.2685 184.641 16.087 184.369 15.9631 184.071C15.8392 183.772 15.7754 183.453 15.7754 183.129C15.7754 182.806 15.8392 182.486 15.9631 182.188C16.087 181.889 16.2685 181.618 16.4974 181.39C16.7263 181.162 16.998 180.981 17.297 180.857C17.596 180.734 17.9164 180.671 18.2399 180.671H70.9244C71.2479 180.671 71.5683 180.734 71.8673 180.857C72.1663 180.981 72.438 181.162 72.6669 181.39C72.8958 181.618 73.0774 181.889 73.2013 182.188C73.3252 182.486 73.389 182.806 73.389 183.129C73.389 183.453 73.3252 183.772 73.2013 184.071C73.0774 184.369 72.8958 184.641 72.6669 184.869C72.438 185.097 72.1663 185.278 71.8673 185.402C71.5683 185.525 71.2479 185.588 70.9244 185.588Z" fill="#2DD06E"/>
<path d="M37.142 175.018H18.2399C17.9164 175.019 17.596 174.956 17.297 174.832C16.998 174.709 16.7263 174.528 16.4974 174.299C16.2685 174.071 16.087 173.8 15.9631 173.502C15.8392 173.203 15.7754 172.883 15.7754 172.56C15.7754 172.237 15.8392 171.917 15.9631 171.619C16.087 171.32 16.2685 171.049 16.4974 170.821C16.7263 170.592 16.998 170.411 17.297 170.288C17.596 170.165 17.9164 170.101 18.2399 170.102H37.142C37.4655 170.101 37.7859 170.165 38.0849 170.288C38.3839 170.411 38.6556 170.592 38.8845 170.821C39.1134 171.049 39.295 171.32 39.4189 171.619C39.5427 171.917 39.6065 172.237 39.6065 172.56C39.6065 172.883 39.5427 173.203 39.4189 173.502C39.295 173.8 39.1134 174.071 38.8845 174.299C38.6556 174.528 38.3839 174.709 38.0849 174.832C37.7859 174.956 37.4655 175.019 37.142 175.018Z" fill="#2DD06E"/>
<path d="M117.612 126.286C117.211 126.286 116.815 126.208 116.444 126.057L50.6738 98.8012V13.4857C50.6747 12.7313 50.9752 12.008 51.5093 11.4746C52.0434 10.9411 52.7676 10.641 53.523 10.6401H179.698C180.454 10.641 181.178 10.9411 181.712 11.4746C182.246 12.008 182.547 12.7313 182.547 13.4857V98.8607L182.424 98.9135L118.815 126.044C118.434 126.204 118.025 126.286 117.612 126.286Z" fill="white"/>
<path d="M117.612 126.489C117.185 126.489 116.762 126.407 116.367 126.245L50.4707 98.9371V13.4858C50.4716 12.6775 50.7935 11.9026 51.3658 11.331C51.9381 10.7594 52.714 10.4379 53.5233 10.437H179.699C180.508 10.4379 181.284 10.7594 181.856 11.331C182.429 11.9026 182.75 12.6775 182.751 13.4858V98.9951L118.895 126.231C118.489 126.401 118.053 126.489 117.612 126.489ZM51.2847 98.394L116.677 125.494C117.287 125.741 117.97 125.737 118.577 125.482L181.937 98.4584V13.4858C181.937 12.8931 181.701 12.3248 181.281 11.9057C180.861 11.4865 180.292 11.2507 179.699 11.25H53.5233C52.9299 11.2507 52.3609 11.4865 51.9412 11.9057C51.5215 12.3248 51.2855 12.8931 51.2848 13.4858L51.2847 98.394Z" fill="#3F3D56"/>
<path d="M229.151 78.7305H229.069L182.344 98.6575L118.414 125.922C118.164 126.027 117.896 126.082 117.625 126.083C117.354 126.084 117.085 126.033 116.834 125.93L50.8772 98.6006L3.00374 78.763L2.93061 78.7305H2.84912C2.09375 78.7313 1.36954 79.0314 0.835412 79.5648C0.301279 80.0983 0.000838151 80.8216 0 81.576V205.155C0.000839226 205.909 0.30128 206.632 0.835412 207.166C1.36954 207.699 2.09375 207.999 2.84912 208H229.151C229.906 207.999 230.63 207.699 231.165 207.166C231.699 206.632 231.999 205.909 232 205.155V81.576C231.999 80.8216 231.699 80.0983 231.165 79.5648C230.63 79.0314 229.906 78.7313 229.151 78.7305ZM231.186 205.155C231.186 205.693 230.971 206.21 230.59 206.591C230.208 206.973 229.691 207.187 229.151 207.187H2.84912C2.30945 207.187 1.79195 206.973 1.41034 206.591C1.02873 206.21 0.814251 205.693 0.814035 205.155V81.576C0.814773 81.0504 1.01891 80.5454 1.38377 80.1666C1.74863 79.7878 2.24596 79.5646 2.77181 79.5435L50.8772 99.4786L116.521 126.682C117.232 126.971 118.028 126.967 118.735 126.67L182.344 99.5396L229.232 79.5435C229.757 79.5661 230.253 79.79 230.617 80.1686C230.981 80.5472 231.185 81.0513 231.186 81.576V205.155Z" fill="#3F3D56"/>
<path d="M116.955 102.093C114.527 102.098 112.164 101.314 110.221 99.8591L110.101 99.7688L84.7389 80.3753C83.5643 79.4765 82.5785 78.3554 81.8378 77.0761C81.097 75.7968 80.6158 74.3843 80.4217 72.9192C80.2275 71.4542 80.3241 69.9653 80.7061 68.5375C81.0881 67.1098 81.7478 65.7711 82.6478 64.598C83.5477 63.425 84.6702 62.4404 85.9511 61.7006C87.232 60.9608 88.6463 60.4802 90.1132 60.2862C91.5801 60.0923 93.0709 60.1888 94.5004 60.5703C95.9299 60.9518 97.2703 61.6108 98.4448 62.5096L114.872 75.0901L153.693 24.5259C154.593 23.3531 155.716 22.3689 156.997 21.6295C158.278 20.8902 159.693 20.4101 161.16 20.2167C162.627 20.0233 164.117 20.1203 165.547 20.5024C166.976 20.8844 168.316 21.5438 169.49 22.4431L169.249 22.7704L169.497 22.4479C171.865 24.266 173.415 26.9483 173.806 29.9062C174.197 32.8642 173.397 35.8562 171.582 38.2259L125.92 97.7015C124.864 99.0721 123.506 100.181 121.951 100.943C120.396 101.704 118.687 102.098 116.955 102.093Z" fill="#2DD06E"/>
</g>
<defs>
<clipPath id="clip0_1095_10189">
<rect width="232" height="208" fill="white"/>
</clipPath>
</defs>
</svg>
