<svg width="449" height="300" viewBox="0 0 449 300" fill="none" xmlns="http://www.w3.org/2000/svg">
<g opacity="0.16" clip-path="url(#clip0_1056_11340)">
<circle cx="254" cy="5" r="5" fill="#2DD06E"/>
<circle cx="274" cy="5" r="5" fill="#2DD06E"/>
<circle cx="294" cy="5" r="5" fill="#2DD06E"/>
<circle cx="314" cy="5" r="5" fill="#2DD06E"/>
<circle cx="334" cy="5" r="5" fill="#2DD06E"/>
<circle cx="354" cy="5" r="5" fill="#2DD06E"/>
<circle cx="374" cy="5" r="5" fill="#2DD06E"/>
<circle cx="394" cy="5" r="5" fill="#2DD06E"/>
<circle cx="414" cy="5" r="5" fill="#2DD06E"/>
<circle cx="434" cy="5" r="5" fill="#2DD06E"/>
<circle cx="254" cy="25" r="5" fill="#2DD06E"/>
<circle cx="274" cy="25" r="5" fill="#2DD06E"/>
<circle cx="294" cy="25" r="5" fill="#2DD06E"/>
<circle cx="314" cy="25" r="5" fill="#2DD06E"/>
<circle cx="334" cy="25" r="5" fill="#2DD06E"/>
<circle cx="354" cy="25" r="5" fill="#2DD06E"/>
<circle cx="374" cy="25" r="5" fill="#2DD06E"/>
<circle cx="394" cy="25" r="5" fill="#2DD06E"/>
<circle cx="414" cy="25" r="5" fill="#2DD06E"/>
<circle cx="434" cy="25" r="5" fill="#2DD06E"/>
<circle cx="254" cy="45" r="5" fill="#2DD06E"/>
<circle cx="274" cy="45" r="5" fill="#2DD06E"/>
<circle cx="294" cy="45" r="5" fill="#2DD06E"/>
<circle cx="314" cy="45" r="5" fill="#2DD06E"/>
<circle cx="334" cy="45" r="5" fill="#2DD06E"/>
<circle cx="354" cy="45" r="5" fill="#2DD06E"/>
<circle cx="374" cy="45" r="5" fill="#2DD06E"/>
<circle cx="394" cy="45" r="5" fill="#2DD06E"/>
<circle cx="414" cy="45" r="5" fill="#2DD06E"/>
<circle cx="434" cy="45" r="5" fill="#2DD06E"/>
<circle cx="254" cy="65" r="5" fill="#2DD06E"/>
<circle cx="274" cy="65" r="5" fill="#2DD06E"/>
<circle cx="294" cy="65" r="5" fill="#2DD06E"/>
<circle cx="314" cy="65" r="5" fill="#2DD06E"/>
<circle cx="334" cy="65" r="5" fill="#2DD06E"/>
<circle cx="354" cy="65" r="5" fill="#2DD06E"/>
<circle cx="374" cy="65" r="5" fill="#2DD06E"/>
<circle cx="394" cy="65" r="5" fill="#2DD06E"/>
<circle cx="414" cy="65" r="5" fill="#2DD06E"/>
<circle cx="434" cy="65" r="5" fill="#2DD06E"/>
<circle cx="254" cy="85" r="5" fill="#2DD06E"/>
<circle cx="274" cy="85" r="5" fill="#2DD06E"/>
<circle cx="294" cy="85" r="5" fill="#2DD06E"/>
<circle cx="314" cy="85" r="5" fill="#2DD06E"/>
<circle cx="334" cy="85" r="5" fill="#2DD06E"/>
<circle cx="354" cy="85" r="5" fill="#2DD06E"/>
<circle cx="374" cy="85" r="5" fill="#2DD06E"/>
<circle cx="394" cy="85" r="5" fill="#2DD06E"/>
<circle cx="414" cy="85" r="5" fill="#2DD06E"/>
<circle cx="434" cy="85" r="5" fill="#2DD06E"/>
<circle cx="254" cy="105" r="5" fill="#2DD06E"/>
<circle cx="274" cy="105" r="5" fill="#2DD06E"/>
<circle cx="294" cy="105" r="5" fill="#2DD06E"/>
<circle cx="314" cy="105" r="5" fill="#2DD06E"/>
<circle cx="334" cy="105" r="5" fill="#2DD06E"/>
<circle cx="354" cy="105" r="5" fill="#2DD06E"/>
<circle cx="374" cy="105" r="5" fill="#2DD06E"/>
<circle cx="394" cy="105" r="5" fill="#2DD06E"/>
<circle cx="414" cy="105" r="5" fill="#2DD06E"/>
<circle cx="434" cy="105" r="5" fill="#2DD06E"/>
<circle cx="254" cy="125" r="5" fill="#2DD06E"/>
<circle cx="274" cy="125" r="5" fill="#2DD06E"/>
<circle cx="294" cy="125" r="5" fill="#2DD06E"/>
<circle cx="314" cy="125" r="5" fill="#2DD06E"/>
<circle cx="334" cy="125" r="5" fill="#2DD06E"/>
<circle cx="354" cy="125" r="5" fill="#2DD06E"/>
<circle cx="374" cy="125" r="5" fill="#2DD06E"/>
<circle cx="394" cy="125" r="5" fill="#2DD06E"/>
<circle cx="414" cy="125" r="5" fill="#2DD06E"/>
<circle cx="434" cy="125" r="5" fill="#2DD06E"/>
<circle cx="254" cy="145" r="5" fill="#2DD06E"/>
<circle cx="274" cy="145" r="5" fill="#2DD06E"/>
<circle cx="294" cy="145" r="5" fill="#2DD06E"/>
<circle cx="314" cy="145" r="5" fill="#2DD06E"/>
<circle cx="334" cy="145" r="5" fill="#2DD06E"/>
<circle cx="354" cy="145" r="5" fill="#2DD06E"/>
<circle cx="374" cy="145" r="5" fill="#2DD06E"/>
<circle cx="394" cy="145" r="5" fill="#2DD06E"/>
<circle cx="414" cy="145" r="5" fill="#2DD06E"/>
<circle cx="434" cy="145" r="5" fill="#2DD06E"/>
<circle cx="254" cy="165" r="5" fill="#2DD06E"/>
<circle cx="274" cy="165" r="5" fill="#2DD06E"/>
<circle cx="294" cy="165" r="5" fill="#2DD06E"/>
<circle cx="314" cy="165" r="5" fill="#2DD06E"/>
<circle cx="334" cy="165" r="5" fill="#2DD06E"/>
<circle cx="354" cy="165" r="5" fill="#2DD06E"/>
<circle cx="374" cy="165" r="5" fill="#2DD06E"/>
<circle cx="394" cy="165" r="5" fill="#2DD06E"/>
<circle cx="414" cy="165" r="5" fill="#2DD06E"/>
<circle cx="434" cy="165" r="5" fill="#2DD06E"/>
<circle cx="254" cy="185" r="5" fill="#2DD06E"/>
<circle cx="274" cy="185" r="5" fill="#2DD06E"/>
<circle cx="294" cy="185" r="5" fill="#2DD06E"/>
<circle cx="314" cy="185" r="5" fill="#2DD06E"/>
<circle cx="334" cy="185" r="5" fill="#2DD06E"/>
<circle cx="354" cy="185" r="5" fill="#2DD06E"/>
<circle cx="374" cy="185" r="5" fill="#2DD06E"/>
<circle cx="394" cy="185" r="5" fill="#2DD06E"/>
<circle cx="414" cy="185" r="5" fill="#2DD06E"/>
<circle cx="434" cy="185" r="5" fill="#2DD06E"/>
</g>
<g clip-path="url(#clip1_1056_11340)">
<path d="M201.969 297.62H198.758L199.828 234.912H200.898L201.969 297.62Z" fill="#E6E6E6"/>
<path d="M204.502 195.375L209.676 187.389C208.142 183.156 206.37 179.012 204.368 174.978L201.022 177.677L203.672 173.588C201.147 168.625 199.16 165.498 199.16 165.498C199.16 165.498 188.784 181.829 185.317 199.121L191.957 209.369L184.606 203.44C184.345 205.454 184.21 207.483 184.203 209.514C184.203 229.993 190.9 246.595 199.16 246.595C207.421 246.595 214.118 229.993 214.118 209.514C214.118 203.165 212.68 196.523 210.696 190.379L204.502 195.375Z" fill="#E6E6E6"/>
<path d="M120.656 297.62H117.445L118.516 234.912H119.585L120.656 297.62Z" fill="#E6E6E6"/>
<path d="M124.393 195.375L129.567 187.389C128.033 183.156 126.26 179.012 124.259 174.978L120.913 177.677L123.562 173.588C121.038 168.625 119.051 165.498 119.051 165.498C119.051 165.498 108.674 181.829 105.208 199.121L111.847 209.369L104.497 203.44C104.235 205.454 104.101 207.483 104.094 209.514C104.094 229.993 110.79 246.595 119.051 246.595C127.312 246.595 134.008 229.993 134.008 209.514C134.008 203.165 132.57 196.523 130.587 190.379L124.393 195.375Z" fill="#E6E6E6"/>
<path d="M160.556 297.426H154.135L156.275 168.447H158.416L160.556 297.426Z" fill="#E6E6E6"/>
<path d="M166.138 87.1273L176.807 70.6603C173.643 61.9316 169.989 53.3882 165.862 45.0706L158.963 50.6356L164.425 42.2044C159.22 31.9701 155.124 25.522 155.124 25.522C155.124 25.522 133.728 59.1965 126.58 94.8501L140.27 115.981L125.115 103.755C124.575 107.909 124.297 112.092 124.283 116.28C124.283 158.506 138.091 192.736 155.124 192.736C172.157 192.736 185.964 158.506 185.964 116.28C185.964 103.189 182.999 89.4939 178.909 76.8252L166.138 87.1273Z" fill="#E6E6E6"/>
<path d="M129.382 78.145C145.735 78.145 158.991 64.9049 158.991 48.5725C158.991 32.2401 145.735 19 129.382 19C113.03 19 99.7734 32.2401 99.7734 48.5725C99.7734 64.9049 113.03 78.145 129.382 78.145Z" fill="#E6E6E6"/>
<path d="M384 297.248H0V298.216H384V297.248Z" fill="#3F3D56"/>
<path d="M345.614 145.297C345.774 145.297 345.933 145.266 346.081 145.205C346.229 145.143 346.363 145.054 346.477 144.94C346.59 144.827 346.68 144.693 346.741 144.545C346.802 144.397 346.834 144.239 346.834 144.079V131.08C346.836 130.885 346.79 130.692 346.701 130.518C346.612 130.344 346.481 130.194 346.321 130.081C346.161 129.969 345.976 129.897 345.782 129.872C345.588 129.846 345.391 129.868 345.207 129.936V115.238C345.207 114.705 345.102 114.176 344.897 113.684C344.693 113.191 344.394 112.743 344.016 112.366C343.638 111.989 343.19 111.689 342.696 111.485C342.203 111.281 341.674 111.176 341.14 111.176H208.147C207.613 111.176 207.084 111.281 206.591 111.485C206.097 111.689 205.649 111.989 205.271 112.366C204.894 112.743 204.594 113.191 204.39 113.684C204.185 114.176 204.08 114.705 204.08 115.238V293.562C204.08 294.64 204.509 295.673 205.271 296.435C206.034 297.197 207.068 297.625 208.147 297.625H341.14C342.219 297.625 343.253 297.197 344.016 296.435C344.779 295.673 345.207 294.64 345.207 293.562V163.502C345.391 163.57 345.588 163.592 345.782 163.566C345.976 163.541 346.161 163.469 346.321 163.357C346.481 163.244 346.611 163.094 346.701 162.92C346.79 162.746 346.836 162.553 346.834 162.358V149.359C346.836 149.164 346.79 148.971 346.701 148.797C346.611 148.623 346.481 148.473 346.321 148.361C346.161 148.248 345.976 148.176 345.782 148.151C345.588 148.126 345.391 148.148 345.207 148.215V145.223C345.337 145.271 345.475 145.296 345.614 145.297Z" fill="#3F3D56"/>
<path d="M333.007 119.097C333.541 119.097 334.069 119.202 334.563 119.406C335.056 119.611 335.505 119.91 335.882 120.287C336.26 120.664 336.56 121.112 336.764 121.605C336.968 122.098 337.074 122.626 337.074 123.159V285.642C337.074 286.719 336.645 287.752 335.882 288.514C335.12 289.276 334.085 289.704 333.007 289.704H216.282C215.203 289.704 214.169 289.276 213.406 288.514C212.643 287.752 212.215 286.719 212.215 285.642V123.159C212.215 122.082 212.643 121.049 213.406 120.287C214.169 119.525 215.203 119.097 216.282 119.097H333.007Z" fill="white"/>
<path d="M274.644 116.863C275.543 116.863 276.271 116.135 276.271 115.238C276.271 114.341 275.543 113.613 274.644 113.613C273.746 113.613 273.018 114.341 273.018 115.238C273.018 116.135 273.746 116.863 274.644 116.863Z" fill="white"/>
<path d="M322.944 140.412H222.979V150.334H322.944V140.412Z" fill="#2DD06E"/>
<path d="M322.944 163.784H222.979V167.542H322.944V163.784Z" fill="#E6E6E6"/>
<path d="M322.944 175.254H222.979V179.012H322.944V175.254Z" fill="#E6E6E6"/>
<path d="M274.63 186.87H222.979V190.628H274.63V186.87Z" fill="#E6E6E6"/>
<path d="M322.944 198.692H222.979V202.45H322.944V198.692Z" fill="#E6E6E6"/>
<path d="M322.944 210.514H222.979V214.272H322.944V210.514Z" fill="#E6E6E6"/>
<path d="M272.901 222.336H222.979V226.094H272.901V222.336Z" fill="#E6E6E6"/>
<path d="M322.944 234.158H222.979V237.916H322.944V234.158Z" fill="#E6E6E6"/>
<path d="M322.944 245.98H222.979V249.738H322.944V245.98Z" fill="#E6E6E6"/>
<path d="M323.064 260.48H291.496V270.846H323.064V260.48Z" fill="#2DD06E"/>
<path d="M115.869 177.111H115.158V153.454C115.158 149.807 113.707 146.309 111.125 143.73C108.543 141.151 105.041 139.702 101.389 139.702H50.9343C49.1262 139.702 47.3358 140.058 45.6654 140.749C43.995 141.44 42.4771 142.453 41.1986 143.73C39.9201 145.007 38.906 146.523 38.2141 148.191C37.5221 149.86 37.166 151.648 37.166 153.454V283.873C37.166 285.679 37.5221 287.467 38.2141 289.136C38.906 290.804 39.9201 292.32 41.1986 293.597C42.4771 294.874 43.995 295.887 45.6654 296.578C47.3358 297.269 49.1262 297.625 50.9343 297.625H101.389C105.041 297.625 108.543 296.176 111.125 293.597C113.707 291.018 115.158 287.52 115.158 283.873V193.922H115.869V177.111Z" fill="#3F3D56"/>
<path d="M112.076 152.511V283.567C112.076 286.29 110.993 288.903 109.064 290.828C107.136 292.754 104.521 293.836 101.793 293.836H51.2414C48.5143 293.836 45.899 292.754 43.9706 290.828C42.0423 288.903 40.959 286.29 40.959 283.567V152.511C40.959 150.056 41.9354 147.701 43.6735 145.965C45.4116 144.229 47.769 143.254 50.227 143.254H57.3642C57.0947 143.927 56.9747 144.651 57.0124 145.375C57.0502 146.099 57.2448 146.806 57.5829 147.448C57.9945 148.157 58.5774 148.751 59.2783 149.176C59.9792 149.602 60.7757 149.845 61.595 149.883H91.0062C91.8256 149.845 92.6222 149.602 93.3231 149.176C94.024 148.751 94.6069 148.157 95.0184 147.448C95.3564 146.806 95.551 146.099 95.5887 145.375C95.6264 144.651 95.5064 143.927 95.2369 143.254H102.808C105.266 143.254 107.623 144.229 109.361 145.965C111.099 147.701 112.076 150.056 112.076 152.511Z" fill="white"/>
<path d="M170.651 116.939C170.651 116.939 165.288 115.026 161.84 122.679C158.392 130.331 153.029 138.748 153.029 138.748L156.094 139.513C156.094 139.513 156.86 134.157 158.775 133.392L158.009 140.278C158.009 140.278 180.994 148.313 191.337 139.513L190.954 136.835C190.954 136.835 192.486 137.218 192.486 139.513L193.636 138.365C193.636 138.365 192.486 136.07 189.039 133.009C186.776 131 185.998 127.178 185.731 124.788C185.531 122.793 184.731 120.904 183.438 119.371C181.146 116.719 176.972 113.9 170.651 116.939Z" fill="#2F2E41"/>
<path d="M139.154 182.584L144.169 188.959L147.361 185.315L144.625 180.762L139.154 182.584Z" fill="#FBBEBE"/>
<path d="M137.331 280.485L135.508 290.048L140.067 292.325L143.258 290.048V280.485H137.331Z" fill="#FBBEBE"/>
<path d="M169.245 280.485L171.069 290.048L166.51 292.325L163.318 290.048V280.485H169.245Z" fill="#FBBEBE"/>
<path d="M150.552 194.423L144.169 239.958L135.051 281.396L145.993 282.762L154.656 244.057L165.597 211.271L164.23 250.432L161.95 282.762H170.157L176.083 239.048L182.637 206.547L182.466 194.423H150.552Z" fill="#2F2E41"/>
<path d="M138.698 289.137C138.698 289.137 136.418 286.405 135.051 287.771C133.683 289.137 130.491 294.602 130.491 294.602C130.491 294.602 123.197 298.7 129.124 299.61C135.051 300.521 136.874 299.61 136.874 299.155C136.874 298.7 137.786 297.334 137.786 297.334L140.066 297.789L143.257 296.878C143.257 296.878 144.625 288.488 143.257 288.813C141.889 289.137 139.154 290.503 138.698 289.137Z" fill="#2F2E41"/>
<path d="M167.876 289.137C167.876 289.137 170.156 286.405 171.523 287.771C172.891 289.137 176.083 294.602 176.083 294.602C176.083 294.602 183.377 298.7 177.45 299.61C171.523 300.521 169.7 299.61 169.7 299.155C169.7 298.7 168.788 297.334 168.788 297.334L166.508 297.789L163.317 296.878C163.317 296.878 161.949 288.488 163.317 288.813C164.685 289.137 167.42 290.503 167.876 289.137Z" fill="#2F2E41"/>
<path d="M172.208 140.463C177.244 140.463 181.327 136.386 181.327 131.356C181.327 126.326 177.244 122.249 172.208 122.249C167.172 122.249 163.09 126.326 163.09 131.356C163.09 136.386 167.172 140.463 172.208 140.463Z" fill="#FBBEBE"/>
<path d="M178.363 137.048C178.363 137.048 177.451 144.789 177.907 146.61C178.363 148.432 179.275 151.164 179.275 151.164L164.686 148.432C164.686 148.432 168.789 139.78 167.877 138.414C166.965 137.048 178.363 137.048 178.363 137.048Z" fill="#FBBEBE"/>
<path d="M179.731 147.977L164.686 144.789L156.023 197.61C159.928 196.546 164.066 196.705 167.877 198.066C174.26 200.343 182.923 198.066 182.923 198.066L181.099 148.432L179.731 147.977Z" fill="#2DD06E"/>
<path d="M167.749 140.605L162.406 143.423L155.567 144.789L148.272 162.093L149.184 174.387C149.184 174.387 141.433 188.503 140.521 196.244C140.521 196.244 141.433 208.084 156.479 207.628L166.509 179.851C166.509 179.851 170.612 158.905 166.509 152.985C166.509 152.985 169.446 141.886 167.749 140.605Z" fill="#2F2E41"/>
<path d="M158.302 144.789L156.826 144.537L155.567 144.789C155.567 144.789 152.375 145.244 148.728 148.432C145.081 151.619 132.771 161.637 131.859 164.369C130.947 167.101 131.403 171.655 132.771 174.387C134.139 177.119 136.874 180.762 136.874 180.762L138.242 183.95L145.993 181.673C145.993 181.673 140.978 172.11 141.433 168.012L150.552 160.726L158.302 144.789Z" fill="#2F2E41"/>
<path d="M177.858 142.664L184.745 151.164L188.393 155.717L183.833 171.2L181.554 184.405C181.554 184.405 187.025 205.351 182.466 211.726C182.466 211.726 179.73 214.914 178.818 211.271C177.907 207.628 177.907 190.325 177.907 190.325C177.907 190.325 174.259 167.557 176.083 161.637C177.907 155.717 175.985 143.727 177.858 142.664Z" fill="#2F2E41"/>
<path d="M184.291 208.539V213.092C184.291 213.092 183.379 228.119 187.939 226.298C192.498 224.476 189.306 213.092 189.306 213.092L188.85 208.083L184.291 208.539Z" fill="#FBBEBE"/>
<path d="M162.045 131.841C165.513 129.335 168.32 126.448 170.176 123.014C170.176 123.014 176.54 130.076 180.429 130.429C184.318 130.782 180.783 121.955 180.783 121.955L173.712 120.189L166.995 120.895L161.691 124.426L162.045 131.841Z" fill="#2F2E41"/>
<path d="M184.745 154.351L188.393 155.717L188.849 160.271L190.672 188.048L189.76 208.995L182.922 209.45L180.642 186.226L179.73 160.727L184.745 154.351Z" fill="#2F2E41"/>
<path d="M104.127 180.396H48.709V185.897H104.127V180.396Z" fill="#2DD06E"/>
<path d="M104.127 193.353H48.709V195.437H104.127V193.353Z" fill="#E6E6E6"/>
<path d="M104.127 199.712H48.709V201.796H104.127V199.712Z" fill="#E6E6E6"/>
<path d="M77.3434 206.152H48.709V208.235H77.3434V206.152Z" fill="#E6E6E6"/>
<path d="M104.127 212.706H48.709V214.789H104.127V212.706Z" fill="#E6E6E6"/>
<path d="M104.418 219H49V221.083H104.418V219Z" fill="#E6E6E6"/>
<path d="M76.6755 225.554H49V227.637H76.6755V225.554Z" fill="#E6E6E6"/>
<path d="M104.418 232.108H49V234.191H104.418V232.108Z" fill="#E6E6E6"/>
<path d="M104.418 238.661H49V240.745H104.418V238.661Z" fill="#E6E6E6"/>
<path d="M104.194 246.959H86.6934V252.706H104.194V246.959Z" fill="#2DD06E"/>
</g>
<defs>
<clipPath id="clip0_1056_11340">
<rect width="200" height="200" fill="white" transform="translate(249)"/>
</clipPath>
<clipPath id="clip1_1056_11340">
<rect width="384" height="281" fill="white" transform="translate(0 19)"/>
</clipPath>
</defs>
</svg>
