<svg width="94" height="83" viewBox="0 0 94 83" fill="none" xmlns="http://www.w3.org/2000/svg">
<path d="M36.9554 82.0933C34.5274 82.0979 32.1637 81.3137 30.221 79.8591L30.1005 79.7688L4.73887 60.3753C3.56432 59.4765 2.57852 58.3554 1.83777 57.0761C1.09702 55.7968 0.615831 54.3843 0.421656 52.9192C0.227481 51.4542 0.324141 49.9653 0.706101 48.5375C1.08806 47.1098 1.74784 45.7711 2.64778 44.598C3.54773 43.425 4.6702 42.4404 5.95112 41.7006C7.23205 40.9608 8.64633 40.4802 10.1132 40.2862C11.5801 40.0923 13.0709 40.1888 14.5004 40.5703C15.9299 40.9518 17.2703 41.6108 18.4448 42.5096L34.8722 55.0901L73.6927 4.52588C74.593 3.3531 75.7158 2.36892 76.997 1.62954C78.2782 0.890159 79.6927 0.410058 81.1596 0.216654C82.6266 0.0232509 84.1173 0.120331 85.5467 0.50235C86.9761 0.884369 88.3162 1.54385 89.4904 2.44313L89.249 2.77043L89.4966 2.44788C91.8652 4.26602 93.415 6.94829 93.806 9.90622C94.1969 12.8642 93.3971 15.8562 91.582 18.2259L45.9198 77.7015C44.8637 79.0721 43.5057 80.1812 41.951 80.9428C40.3964 81.7044 38.687 82.0981 36.9554 82.0933V82.0933Z" fill="#2DD06E"/>
</svg>
